<?xml version="1.0" encoding="UTF-8"?>
<svg version="1.1" xmlns="http://www.w3.org/2000/svg" width="385" height="424">
<path d="M0 0 C127.05 0 254.1 0 385 0 C385 139.92 385 279.84 385 424 C257.95 424 130.9 424 0 424 C0 284.08 0 144.16 0 0 Z " fill="#F6F4F7" transform="translate(0,0)"/>
<path d="M0 0 C2.60128014 1.30922515 5.1383543 2.70675766 7.6796875 4.12890625 C14.66879575 7.81224181 21.43481478 11.15781341 28.9296875 13.69140625 C37.72318955 16.73758577 45.49603078 20.06275901 50.4375 28.3125 C53.08757064 34.32099351 54.34948145 40.72728964 55.6796875 47.12890625 C55.9065625 48.20269531 56.1334375 49.27648437 56.3671875 50.3828125 C56.82712258 52.62819001 57.26778996 54.87430921 57.6796875 57.12890625 C58.93458984 57.47501953 58.93458984 57.47501953 60.21484375 57.828125 C97.43048187 68.25509781 97.43048187 68.25509781 104.6796875 79.12890625 C105.14420428 84.14568751 104.90172885 87.20204335 101.6796875 91.12890625 C93.05720783 99.23274052 80.49466377 104.12890625 68.6796875 104.12890625 C68.7621875 105.28390625 68.8446875 106.43890625 68.9296875 107.62890625 C68.899303 113.36144916 66.93562224 117.712597 63.03125 121.89453125 C57.09491218 127.234643 52.54681383 128.3955885 44.6796875 128.12890625 C44.47666016 129.11117187 44.47666016 129.11117187 44.26953125 130.11328125 C42.04500297 139.5442155 38.14342827 148.27798083 30.8046875 154.81640625 C27.91688551 157.42641073 27.16938333 159.19155952 26.7421875 163.06640625 C26.69022326 164.41973589 26.65819296 165.77474992 26.6796875 167.12890625 C27.8346875 167.33515625 28.9896875 167.54140625 30.1796875 167.75390625 C36.73422248 169.41284165 41.62206854 173.21211873 45.2421875 178.87890625 C47.03138439 181.65461239 48.29946341 182.66605806 51.4921875 183.56640625 C52.5440625 183.75203125 53.5959375 183.93765625 54.6796875 184.12890625 C55.3396875 183.46890625 55.9996875 182.80890625 56.6796875 182.12890625 C59.140625 181.8984375 59.140625 181.8984375 62.0546875 181.94140625 C63.48941406 181.95107422 63.48941406 181.95107422 64.953125 181.9609375 C67.34562818 182.10832666 69.39010547 182.45071252 71.6796875 183.12890625 C71.78925781 182.54882812 71.89882813 181.96875 72.01171875 181.37109375 C72.97999894 176.60054255 73.91590194 172.22340338 76.6796875 168.12890625 C79.1796875 167.06640625 79.1796875 167.06640625 81.6796875 167.12890625 C83.5546875 168.12890625 83.5546875 168.12890625 84.6796875 170.12890625 C84.35510154 175.53867217 82.91135254 180.85546663 81.6796875 186.12890625 C82.4634375 186.56203125 83.2471875 186.99515625 84.0546875 187.44140625 C86.6796875 189.12890625 86.6796875 189.12890625 88.6796875 192.12890625 C88.75316406 192.94875 88.82664062 193.76859375 88.90234375 194.61328125 C89.46607764 197.42440407 89.46607764 197.42440407 92.48828125 198.83203125 C94.28458984 199.59773438 94.28458984 199.59773438 96.1171875 200.37890625 C110.49662992 206.9961245 118.69046869 218.09187639 124.42578125 232.62890625 C128.14374549 243.00677529 131.50848523 253.5351547 133.94140625 264.29296875 C134.56227137 266.6778792 135.28147037 268.95222954 136.078125 271.28125 C139.16332825 280.39597857 141.34477588 289.80019248 143.6796875 299.12890625 C144.00815674 300.43529053 144.00815674 300.43529053 144.34326172 301.76806641 C149.16267975 321.19526703 149.16267975 321.19526703 147.6796875 328.12890625 C145.6171875 330.81640625 145.6171875 330.81640625 142.6796875 332.12890625 C140.34693253 332.18085519 138.01230737 332.18660356 135.6796875 332.12890625 C135.74027344 332.84095215 135.80085938 333.55299805 135.86328125 334.28662109 C136.97705425 347.67974136 137.90024481 361.06160079 138.0546875 374.50390625 C138.08046875 375.58333496 138.10625 376.66276367 138.1328125 377.77490234 C138.14780858 383.65805261 138.00865372 387.71588243 133.6796875 392.12890625 C128.12373547 395.07568278 123.63734156 395.5626494 117.41233826 395.52331543 C116.04376862 395.53245209 116.04376862 395.53245209 114.64755112 395.54177332 C111.6014134 395.55837423 108.55569501 395.55363166 105.50952148 395.54882812 C103.32120328 395.55616997 101.13288894 395.56475654 98.94458008 395.57449341 C93.00879629 395.59670179 87.07315135 395.59964055 81.13733172 395.5977459 C76.18178896 395.5976262 71.22627562 395.60618949 66.27074105 395.61452341 C53.91419318 395.63485282 41.55771421 395.63590841 29.20115644 395.62871629 C18.47435609 395.62313755 7.74779432 395.64398368 -2.97895027 395.67707676 C-14.00136449 395.71081748 -25.02365878 395.72550729 -36.04612488 395.72135973 C-42.23124292 395.71929021 -48.41612313 395.72480373 -54.6011982 395.74925232 C-60.41503017 395.77147512 -66.22836416 395.76967847 -72.04219818 395.7493248 C-74.17632622 395.74590728 -76.3104875 395.75103561 -78.44457054 395.76530838 C-81.35694662 395.78344349 -84.26762285 395.77079431 -87.1799469 395.75036621 C-88.02537648 395.76288406 -88.87080607 395.77540191 -89.74185473 395.78829908 C-93.86188306 395.72629414 -96.54979727 395.37490331 -99.85496426 392.79831696 C-102.3203125 390.12890625 -102.3203125 390.12890625 -102.90625 386.796875 C-102.83664063 385.64832031 -102.76703125 384.49976563 -102.6953125 383.31640625 C-102.64117187 382.15496094 -102.58703125 380.99351562 -102.53125 379.796875 C-102.46164063 378.91644531 -102.39203125 378.03601563 -102.3203125 377.12890625 C-103.5165625 377.21140625 -104.7128125 377.29390625 -105.9453125 377.37890625 C-110.55781503 377.32196177 -112.89743614 376.39965477 -116.3203125 373.12890625 C-121.3203125 364.19750783 -121.3203125 364.19750783 -121.3203125 360.12890625 C-121.8771875 360.1753125 -122.4340625 360.22171875 -123.0078125 360.26953125 C-130.07439054 360.60376129 -134.64911624 359.00633035 -140.19921875 354.65625 C-148.63992228 346.94476492 -152.55060633 335.76675974 -153.67578125 324.6015625 C-153.93736906 317.97702807 -153.67804592 313.08124382 -149.8046875 307.58203125 C-148.11997486 305.93278625 -146.43655825 305.13772591 -144.3203125 304.12890625 C-146.27476813 298.93174453 -148.23203357 293.73565312 -150.19189453 288.54052734 C-150.85803045 286.77356534 -151.5234017 285.00631486 -152.18798828 283.23876953 C-153.14414121 280.69617451 -154.10305182 278.15463434 -155.0625 275.61328125 C-155.35841034 274.82459656 -155.65432068 274.03591187 -155.959198 273.22332764 C-156.23933746 272.48286194 -156.51947693 271.74239624 -156.80810547 270.97949219 C-157.05237274 270.33107361 -157.29664001 269.68265503 -157.54830933 269.0145874 C-158.31026347 267.07291493 -158.31026347 267.07291493 -159.38748169 265.07183838 C-160.76528496 262.2021023 -160.76924232 260.27141501 -160.3203125 257.12890625 C-158.5 254.45703125 -158.5 254.45703125 -155.3203125 252.12890625 C-151.53100476 251.51512143 -147.83368668 251.6573008 -144.0078125 251.81640625 C-142.46770508 251.85024414 -142.46770508 251.85024414 -140.89648438 251.88476562 C-138.3695946 251.9435305 -135.84570995 252.02562776 -133.3203125 252.12890625 C-133.3203125 250.14890625 -133.3203125 248.16890625 -133.3203125 246.12890625 C-132.52367187 245.89429688 -131.72703125 245.6596875 -130.90625 245.41796875 C-128.18212167 244.40391508 -128.18212167 244.40391508 -127.421875 242.08984375 C-127.18597656 240.80980469 -127.18597656 240.80980469 -126.9453125 239.50390625 C-124.41731547 228.6635122 -119.87884443 217.4334751 -112.3203125 209.12890625 C-111.83433594 208.55269531 -111.34835938 207.97648438 -110.84765625 207.3828125 C-100.37608708 195.83063914 -82.84281707 188.07936619 -67.5859375 185.5625 C-59.77740223 184.0681079 -54.93893626 181.31335094 -50.05078125 175.1015625 C-47.33705754 172.00803998 -44.02043229 169.89815893 -40.3203125 168.12890625 C-39.6603125 168.12890625 -39.0003125 168.12890625 -38.3203125 168.12890625 C-38.35302476 161.34131788 -38.35302476 161.34131788 -41.4453125 155.56640625 C-42.3940625 154.76203125 -43.3428125 153.95765625 -44.3203125 153.12890625 C-50.59179956 146.25604372 -56.3203125 137.69139623 -56.3203125 128.12890625 C-57.24650391 128.23332031 -57.24650391 128.23332031 -58.19140625 128.33984375 C-64.374952 128.73513891 -68.34848414 127.84215252 -73.3359375 124.1015625 C-77.70649214 119.75681822 -80.58223479 114.23760898 -80.6328125 108.00390625 C-80.5296875 107.05515625 -80.4265625 106.10640625 -80.3203125 105.12890625 C-80.94035156 105.05414063 -81.56039062 104.979375 -82.19921875 104.90234375 C-94.34046122 103.09971386 -107.7472632 98.7462718 -115.9921875 89.19140625 C-118.07749482 85.95304664 -118.03164474 82.7922673 -117.3203125 79.12890625 C-111.79113758 69.45285014 -99.69065522 65.65059579 -89.6953125 62.25390625 C-88.82519531 61.95556885 -87.95507812 61.65723145 -87.05859375 61.34985352 C-81.15723949 59.44003553 -75.50834352 58.49856361 -69.3203125 58.12890625 C-69.25166992 57.0778772 -69.25166992 57.0778772 -69.18164062 56.00561523 C-68.32960744 43.74327803 -67.03901462 30.30590134 -57.7578125 21.44140625 C-51.99395784 16.76686724 -45.40223086 14.22853428 -38.48046875 11.734375 C-37.11438453 11.24143602 -35.7485021 10.74793748 -34.3828125 10.25390625 C-33.36344604 9.88604004 -33.36344604 9.88604004 -32.32348633 9.51074219 C-26.70153187 7.41653895 -21.77095737 4.7304816 -16.67578125 1.546875 C-11.49713171 -1.5706205 -5.68124048 -2.13285628 0 0 Z " fill="#2F600B" transform="translate(201.3203125,17.87109375)"/>
<path d="M0 0 C1.60822 0.09081024 3.21292761 0.24779961 4.8125 0.4375 C7.93966427 0.80241282 10.83624149 1 14 1 C14 4.63111172 13.46200825 4.83400509 11 7.3125 C-8.68762737 29.22292401 -12.77456686 60.72661989 -12.4375 88.9375 C-12.42701406 91.01920538 -12.4165983 93.10091112 -12.40625 95.18261719 C-12.30961388 106.46001901 -11.78963341 117.54232464 -10.5 128.75 C-8.78062788 145.08403514 -9 161.57572089 -9 178 C-43.65 178 -78.3 178 -114 178 C-114 174.7 -114 171.4 -114 168 C-111.03 168 -108.06 168 -105 168 C-104.67 169.32 -104.34 170.64 -104 172 C-103.01 171.67 -102.02 171.34 -101 171 C-101.04125 170.05125 -101.0825 169.1025 -101.125 168.125 C-101 165 -101 165 -99 163 C-98.13224036 155.56206026 -100.25072252 149.77938951 -102.90625 142.94140625 C-104 140 -104 140 -104 138 C-103.01 137.67 -102.02 137.34 -101 137 C-101 136.01 -101 135.02 -101 134 C-102.65 134 -104.3 134 -106 134 C-115.07901975 113.74122988 -115.32909582 95.99898787 -112.50390625 74.3046875 C-111.93516018 69.79394278 -111.70603776 65.28955457 -111.5 60.75 C-110.28579964 37.56753536 -110.28579964 37.56753536 -104.390625 31.80859375 C-93.79948941 23.79601895 -82.0519082 19.01136972 -69.23242188 15.98242188 C-68.07129883 15.68368164 -68.07129883 15.68368164 -66.88671875 15.37890625 C-66.18764404 15.2094751 -65.48856934 15.04004395 -64.76831055 14.86547852 C-62.42151247 13.71686618 -61.94040531 12.37724515 -61 10 C-58.28269597 10.47952424 -55.79238178 11.07381981 -53.1875 12 C-50.46342903 12.8546105 -48.59752913 13.10717799 -45.8125 13.25 C-43.9253125 13.62125 -43.9253125 13.62125 -42 14 C-40.94535351 15.9717304 -39.95394836 17.97762948 -39 20 C-34.1394933 25.11449992 -29.26591844 26.44819848 -22.3125 26.6875 C-17.37625327 26.70287772 -14.05918224 26.19723653 -10.35083008 22.73168945 C-7.57357959 19.17140793 -6.20356528 14.96029568 -4.6875 10.75 C-4.00561828 8.93164874 -3.3221132 7.11390512 -2.63671875 5.296875 C-2.34498779 4.49604492 -2.05325684 3.69521484 -1.75268555 2.87011719 C-1 1 -1 1 0 0 Z " fill="#F5F4F5" transform="translate(287,227)"/>
<path d="M0 0 C3.39494112 -0.20402829 6.78830486 -0.32784854 10.1875 -0.4375 C11.14720703 -0.49615234 12.10691406 -0.55480469 13.09570312 -0.61523438 C14.49272461 -0.64907227 14.49272461 -0.64907227 15.91796875 -0.68359375 C16.77156982 -0.72025146 17.6251709 -0.75690918 18.50463867 -0.79467773 C21.50833271 0.16188464 21.72355122 0.88629294 23.31518555 3.49560547 C25.43045794 6.73316748 25.66660986 6.92619191 29.73291016 7.82641602 C31.1684449 7.83873447 32.60467277 7.81253935 34.0390625 7.75390625 C35.18307022 7.74616432 35.18307022 7.74616432 36.35018921 7.73826599 C37.95572206 7.72117798 39.56115403 7.68740657 41.16601562 7.63793945 C43.62442165 7.56251774 46.07962731 7.53551048 48.5390625 7.51757812 C50.1016055 7.49498842 51.66411221 7.4696909 53.2265625 7.44140625 C53.96097565 7.42976944 54.69538879 7.41813263 55.45205688 7.40614319 C59.14449385 7.28505429 60.85128615 7.09914257 64 5 C64.66 3.35 65.32 1.7 66 0 C72.6 0 79.2 0 86 0 C87.25100807 3.58298429 88.50098017 7.16632253 89.75 10.75 C90.11907471 11.80807861 90.48814941 12.86615723 90.8684082 13.95629883 C92.68857258 19.18580049 94.48314502 24.41885079 96.1875 29.6875 C97.41463178 33.42248189 98.82168091 37.01365561 100.375 40.625 C102.53488512 45.67356583 104.30430222 50.78313387 106 56 C107.61564867 60.96934363 109.270151 65.83611535 111.375 70.625 C114.47476098 77.75042459 116.76893589 85.15894414 119.14599609 92.54931641 C120.48905811 96.68217276 121.79197159 100.58487605 123.7421875 104.4765625 C125 107 125 107 125 111 C114.360457 111.11574249 103.72106323 111.20463835 93.0810194 111.25906086 C88.14061977 111.28517834 83.20065015 111.32061546 78.26049805 111.37719727 C73.49480769 111.43144059 68.72953147 111.46140433 63.96355629 111.47438622 C62.14338979 111.48363995 60.32324649 111.50171023 58.50325584 111.52865028 C55.95764189 111.56483977 53.41374884 111.56994978 50.86791992 111.56762695 C50.11194519 111.58560333 49.35597046 111.60357971 48.5770874 111.62210083 C46.47380066 111.60127258 46.47380066 111.60127258 43 111 C41.11372375 108.65983582 41.11372375 108.65983582 40 106 C39.443125 104.96875 38.88625 103.9375 38.3125 102.875 C37 100 37 100 37 97 C37.62648437 96.74605469 38.25296875 96.49210937 38.8984375 96.23046875 C39.71570313 95.88628906 40.53296875 95.54210937 41.375 95.1875 C42.18710938 94.85105469 42.99921875 94.51460938 43.8359375 94.16796875 C46.30147458 93.05560918 46.30147458 93.05560918 48 90 C48.35488483 87.13802554 48.60137074 84.37190094 48.75 81.5 C48.80542969 80.72785156 48.86085937 79.95570313 48.91796875 79.16015625 C49.20448778 74.29031789 49.20448778 74.29031789 47 70 C46.67287763 67.71428423 46.5605032 65.46135232 46.44140625 63.15625 C45.90440761 60.53303543 44.91048241 59.80243456 43 58 C42.71125 56.865625 42.4225 55.73125 42.125 54.5625 C40.81243338 50.40603905 39.6389774 49.2849393 36 47 C30.70435683 44.42756124 25.29387608 44.48170943 19.49609375 44.1484375 C16 43 16 43 13.92578125 39.8984375 C13.25348879 38.27789133 12.61710015 36.64235637 12 35 C11.52941162 33.84612793 11.05882324 32.69225586 10.57397461 31.50341797 C9.20398885 28.13959341 7.87992057 24.75969357 6.57128906 21.37158203 C5.7453921 19.23809671 4.90815303 17.10928759 4.0703125 14.98046875 C3.5409744 13.61745615 3.01230439 12.25418385 2.484375 10.890625 C2.00709961 9.66375977 1.52982422 8.43689453 1.03808594 7.17285156 C0 4 0 4 0 0 Z " fill="#F4F3F4" transform="translate(49,277)"/>
<path d="M0 0 C2.85137235 0.01072403 5.70211321 0.00002193 8.5534668 -0.01269531 C18.13572429 -0.02132974 27.65383815 0.27644084 37.20385742 1.08886719 C38.10156357 1.15797302 38.99926971 1.22707886 39.92417908 1.29827881 C40.748741 1.37773743 41.57330292 1.45719604 42.42285156 1.5390625 C43.1485585 1.60554993 43.87426544 1.67203735 44.6219635 1.74053955 C46.41870117 2.26074219 46.41870117 2.26074219 48.41870117 5.26074219 C52.28426274 20.12645118 52.75006733 40.11707482 46.50463867 54.34277344 C44.50300808 57.68696114 41.99209794 59.77908987 38.41870117 61.26074219 C35.98120117 61.38574219 35.98120117 61.38574219 33.41870117 60.26074219 C31.83058239 58.56905044 30.39951627 56.78456901 28.94213867 54.97949219 C24.52677652 49.99805796 18.65870373 49.66287569 12.41870117 49.26074219 C12.41870117 48.60074219 12.41870117 47.94074219 12.41870117 47.26074219 C11.39776367 47.75574219 11.39776367 47.75574219 10.35620117 48.26074219 C6.12541409 49.70101013 2.25415284 49.7196051 -2.08129883 48.63574219 C-5.62756089 48.10380288 -8.19593941 49.15174514 -11.58129883 50.26074219 C-12.71567383 50.44636719 -13.85004883 50.63199219 -15.01879883 50.82324219 C-18.94187752 52.40623885 -19.98679453 53.71885919 -22.58129883 56.94824219 C-26.13301715 61.20755623 -26.13301715 61.20755623 -30.26879883 61.69824219 C-35.54397049 59.40901675 -38.32905427 55.42488451 -40.58129883 50.26074219 C-44.28854917 35.63769918 -44.13675805 17.8978152 -40.58129883 3.26074219 C-34.15803137 -3.16252527 -8.77718999 -0.03905981 0 0 Z " fill="#F3F2F3" transform="translate(191.581298828125,89.7392578125)"/>
<path d="M0 0 C1.78700317 -0.01418472 1.78700317 -0.01418472 3.61010742 -0.02865601 C5.54140503 -0.01954697 5.54140503 -0.01954697 7.51171875 -0.01025391 C8.8454606 -0.01227496 10.17920138 -0.01518666 11.51293945 -0.01895142 C14.30723601 -0.02337336 17.10124473 -0.01694831 19.89550781 -0.00292969 C23.4769634 0.01416265 27.05774457 0.0043207 30.63917542 -0.01364708 C33.39299601 -0.02448872 36.14665676 -0.02103695 38.90048218 -0.0132637 C40.8631026 -0.01028969 42.82572923 -0.01939932 44.78833008 -0.02865601 C45.97966553 -0.01919952 47.17100098 -0.00974304 48.3984375 0 C49.44862061 0.00238678 50.49880371 0.00477356 51.58081055 0.00723267 C54.19921875 0.38818359 54.19921875 0.38818359 56.03552246 1.57780457 C57.62588521 4.05195474 57.59351405 5.80805142 57.61914062 8.74243164 C57.64300842 10.38510262 57.64300842 10.38510262 57.6673584 12.06095886 C57.66755981 13.24531021 57.66776123 14.42966156 57.66796875 15.64990234 C57.67938904 17.47954277 57.67938904 17.47954277 57.69104004 19.34614563 C57.70185701 21.93101961 57.70468771 24.51593736 57.70019531 27.10083008 C57.69922676 31.04306866 57.74075653 34.98333743 57.78515625 38.92529297 C57.79036603 41.43765871 57.7930514 43.9500312 57.79296875 46.46240234 C57.80936401 47.63663254 57.82575928 48.81086273 57.84265137 50.02067566 C57.7705573 58.62721733 55.79371988 63.35798536 50.13671875 69.70068359 C41.59360917 74.60842739 31.62535797 74.86467656 22.01171875 74.76318359 C20.90119141 74.77478516 19.79066406 74.78638672 18.64648438 74.79833984 C10.7683596 74.77038671 4.19836686 73.78767246 -2.61328125 69.70068359 C-9.24641359 62.68851512 -9.38491173 55.66443023 -9.296875 46.46240234 C-9.29833023 45.23785843 -9.29978546 44.01331451 -9.30128479 42.75166321 C-9.2996309 40.17564502 -9.28812715 37.59961643 -9.26733398 35.02368164 C-9.23824819 31.07119154 -9.246763 27.12003276 -9.25976562 23.16748047 C-9.25353185 20.66161455 -9.24514375 18.15575287 -9.234375 15.64990234 C-9.23731064 14.46555099 -9.24024628 13.28119965 -9.24327087 12.06095886 C-9.22424461 10.41828789 -9.22424461 10.41828789 -9.20483398 8.74243164 C-9.199431 7.77838913 -9.19402802 6.81434662 -9.1884613 5.8210907 C-8.80078125 3.38818359 -8.80078125 3.38818359 -7.63807678 1.57780457 C-5.03491896 -0.10770062 -3.09012687 0.00702302 0 0 Z " fill="#2F600A" transform="translate(209.80078125,297.61181640625)"/>
<path d="M0 0 C-0.433125 1.2375 -0.86625 2.475 -1.3125 3.75 C-5.32643383 15.62335309 -5.32643383 15.62335309 -6 28 C-4.37070843 29.62929157 -2.55305904 29.17075442 -0.3125 29.1875 C3.85803639 29.15775295 7.08241096 28.49241487 11 27 C12.32 27 13.64 27 15 27 C15.01160156 27.8971875 15.01160156 27.8971875 15.0234375 28.8125 C15.88937003 31.3940758 15.88937003 31.3940758 19.3515625 32.5625 C20.7705536 33.05768264 22.19543715 33.53622025 23.625 34 C29.15840919 35.85466017 34.00391824 37.95776649 39 41 C37.79943407 43.72855894 36.5714983 45.48343781 34.5625 47.75 C23.41167593 63.42674678 26.78440197 94.52526942 26 113 C24 112 24 112 23.25390625 109.99609375 C23.02574219 109.15175781 22.79757813 108.30742187 22.5625 107.4375 C21.54579254 103.71344583 20.32993874 100.12462845 18.95239258 96.51831055 C17.75385335 93.34914056 16.60020224 90.16438172 15.44140625 86.98046875 C14.72749319 85.04328457 14.01119476 83.10700335 13.29370117 81.17114258 C12.80354006 79.84140667 12.31790662 78.5099936 11.83666992 77.17700195 C11.13340809 75.23190587 10.41409666 73.29341646 9.69140625 71.35546875 C9.27060791 70.20715576 8.84980957 69.05884277 8.41625977 67.87573242 C6.89632708 64.78949089 6.04526455 63.55286776 3 62 C0.0064314 61.49746855 0.0064314 61.49746855 -3.296875 61.48828125 C-5.10478516 61.43510742 -5.10478516 61.43510742 -6.94921875 61.38085938 C-8.20347656 61.35830078 -9.45773438 61.33574219 -10.75 61.3125 C-12.65458984 61.26125977 -12.65458984 61.26125977 -14.59765625 61.20898438 C-17.73168274 61.12650999 -20.86542955 61.05735516 -24 61 C-24.268125 60.05125 -24.53625 59.1025 -24.8125 58.125 C-25.74986588 54.74732727 -25.74986588 54.74732727 -29 53 C-29.83402344 52.91234375 -30.66804688 52.8246875 -31.52734375 52.734375 C-34 52 -34 52 -35.44140625 49.453125 C-35.81136719 48.39609375 -36.18132812 47.3390625 -36.5625 46.25 C-38.13876469 41.82118709 -39.64950799 38.36920984 -43 35 C-44.32 35 -45.64 35 -47 35 C-46.40199745 38.82859106 -45.25098656 41.77235864 -43.4375 45.1875 C-41 49.79320113 -41 49.79320113 -41 52 C-41.66 52 -42.32 52 -43 52 C-43.391875 51.505 -43.78375 51.01 -44.1875 50.5 C-46.05595466 48.68128653 -46.05595466 48.68128653 -49.4375 48.5625 C-53.57992566 49.07121894 -54.29481513 50.01496842 -57 53 C-58.32 53 -59.64 53 -61 53 C-57.54529931 39.84789386 -52.73108528 27.73108528 -43 18 C-41.49566406 18.07154297 -41.49566406 18.07154297 -39.9609375 18.14453125 C-34.73405424 17.95380671 -31.2140507 16.05166749 -26.625 13.6875 C-25.01562826 12.87372897 -23.40364919 12.0650932 -21.7890625 11.26171875 C-21.00305664 10.87032715 -20.21705078 10.47893555 -19.40722656 10.07568359 C-16.2658584 8.67194443 -13.05614028 7.73903459 -9.72802734 6.88208008 C-9.15777832 6.59099365 -8.5875293 6.29990723 -8 6 C-7.37878253 4.00576309 -7.37878253 4.00576309 -7 2 C-4.55683729 0.74709605 -2.75474605 0 0 0 Z " fill="#F3F2F3" transform="translate(142,209)"/>
<path d="M0 0 C5.0080114 1.66933713 6.58620155 6.51903212 9 11 C13 19.01223242 13 19.01223242 13 23 C12.14450562 23.03758423 12.14450562 23.03758423 11.27172852 23.07592773 C8.70173843 23.19156549 6.13214473 23.31443624 3.5625 23.4375 C2.21575195 23.49647461 2.21575195 23.49647461 0.84179688 23.55664062 C-0.01220703 23.59853516 -0.86621094 23.64042969 -1.74609375 23.68359375 C-2.93223267 23.73858032 -2.93223267 23.73858032 -4.14233398 23.79467773 C-6.01401441 23.80563257 -6.01401441 23.80563257 -7 25 C-7.98917089 35.45926595 -6.0628647 44.19111867 -1.1875 53.4375 C3.08814019 58.44610708 7.69459302 61.68831436 14.35546875 62.31640625 C15.62003906 62.39761719 16.88460937 62.47882813 18.1875 62.5625 C19.45980469 62.64628906 20.73210937 62.73007812 22.04296875 62.81640625 C23.01878906 62.87699219 23.99460937 62.93757813 25 63 C27.56206335 68.51254448 29.15115023 73.97137288 30.5625 79.875 C30.77068359 80.72191406 30.97886719 81.56882812 31.19335938 82.44140625 C31.80808744 84.95812994 32.40640592 87.47821613 33 90 C33.19561523 90.81170654 33.39123047 91.62341309 33.59277344 92.4597168 C34.84588165 97.8120414 35.1747301 102.49600186 35 108 C33.85917969 107.76216797 33.85917969 107.76216797 32.6953125 107.51953125 C17.42230681 105.37226935 2.13045644 106.83440495 -12.76904297 110.45996094 C-16.49990985 111.36307733 -20.25105404 112.17577546 -24 113 C-26.25532972 89.38131794 -27.91911313 62.90907501 -21 40 C-20.75862305 39.19272461 -20.51724609 38.38544922 -20.26855469 37.55371094 C-15.93192341 23.5946676 -9.57264578 11.10091028 0 0 Z " fill="#F5F4F5" transform="translate(306,234)"/>
<path d="M0 0 C3.04296875 1.6015625 3.04296875 1.6015625 6.1875 3.625 C12.7573575 7.66525255 19.55170387 10.17645285 26.89526367 12.47705078 C35.03206715 15.0930042 41.92564752 18.07441434 46 26 C46.94309877 28.65229445 47.62510764 31.31963229 48.25 34.0625 C48.42273438 34.75666016 48.59546875 35.45082031 48.7734375 36.16601562 C49.65834988 39.86368523 50.07679662 43.21204774 50 47 C44.16821139 47.1665124 38.67617699 46.90286752 32.92578125 45.93237305 C8.29851051 41.85773773 -18.03582094 42.95877333 -42.75537109 45.75634766 C-46.1447538 46.12426194 -49.53741013 46.37515314 -52.9375 46.625 C-53.93652344 46.69976562 -54.93554688 46.77453125 -55.96484375 46.8515625 C-56.63644531 46.90054688 -57.30804688 46.94953125 -58 47 C-57.42083838 36.67494625 -56.65820527 26.3612818 -49.11328125 18.62890625 C-46.07122287 16.28410339 -42.99934444 15.25307151 -39.35546875 14.1171875 C-35.11400987 12.70501376 -31.08012941 10.94472252 -27 9.125 C-26.22124512 8.78090088 -25.44249023 8.43680176 -24.64013672 8.08227539 C-19.35308929 5.70962507 -14.34803365 3.05637306 -9.45703125 -0.06640625 C-5.9297815 -1.406649 -3.63690266 -0.89139771 0 0 Z " fill="#F3F3F3" transform="translate(199,26)"/>
<path d="M0 0 C0.31522701 2.58302518 0.62720171 5.1663816 0.9375 7.75 C1.06801758 8.81541016 1.06801758 8.81541016 1.20117188 9.90234375 C2.50112637 20.7834443 3.21839589 31.60250745 3.3125 42.5625 C3.34150391 43.72330078 3.37050781 44.88410156 3.40039062 46.08007812 C3.40876953 47.18931641 3.41714844 48.29855469 3.42578125 49.44140625 C3.44036377 50.43857666 3.45494629 51.43574707 3.4699707 52.46313477 C3 55 3 55 1.48999023 56.82910156 C-2.06057632 58.49872772 -5.42504817 58.37085143 -9.265625 58.29296875 C-9.96929199 58.28994751 -10.67295898 58.28692627 -11.39794922 58.28381348 C-14.01544962 58.26816936 -16.63274021 58.22628524 -19.25 58.1875 C-28.03625 58.0946875 -28.03625 58.0946875 -37 58 C-37 40.51 -37 23.02 -37 5 C-24.47974119 0.8265804 -13.08930077 -0.46440358 0 0 Z " fill="#F4F3F4" transform="translate(328,347)"/>
<path d="M0 0 C1.06758545 -0.0033284 2.1351709 -0.0066568 3.23510742 -0.01008606 C5.48046442 -0.01511228 7.72582878 -0.01749573 9.97119141 -0.01733398 C13.33899825 -0.01950801 16.70647013 -0.03767641 20.07421875 -0.05664062 C37.19615118 -0.1026834 54.19326195 0.40404674 70.875 4.60546875 C71.79949951 4.8286377 72.72399902 5.05180664 73.67651367 5.28173828 C75.4670944 5.71531202 77.25650299 6.15376893 79.04443359 6.59814453 C80.96626084 7.0680319 82.89812017 7.49668734 84.83203125 7.9140625 C90.85233846 9.24001251 96.47933968 11.24942957 102.1875 13.54296875 C102.89366455 13.82317871 103.5998291 14.10338867 104.32739258 14.39208984 C109.20086783 16.42390367 113.17221383 18.97055496 117.375 22.16796875 C117.375 24.35546875 117.375 24.35546875 116.375 27.16796875 C111.06477874 31.63005388 104.68421163 33.66473753 98.125 35.54296875 C97.24070312 35.81496094 96.35640625 36.08695313 95.4453125 36.3671875 C88.09474126 38.53238598 88.09474126 38.53238598 84.375 37.16796875 C79.58626761 33.57641945 79.58626761 33.57641945 79.05859375 30.05859375 C79.06208022 28.09222466 79.20895348 26.12731764 79.375 24.16796875 C80.95823688 24.14077575 82.54161062 24.12148569 84.125 24.10546875 C85.44757813 24.08806641 85.44757813 24.08806641 86.796875 24.0703125 C89.1740079 24.16035541 91.08944143 24.56847798 93.375 25.16796875 C95.70800933 25.20685224 98.04209801 25.21283225 100.375 25.16796875 C100.705 23.51796875 101.035 21.86796875 101.375 20.16796875 C95.79978933 17.18102274 90.57806134 15.13949743 84.4375 13.66796875 C83.5913916 13.46075195 82.7452832 13.25353516 81.87353516 13.04003906 C64.01117175 8.82992417 45.63325673 6.04530738 27.26953125 5.96484375 C26.22842697 5.95914368 25.18732269 5.9534436 24.1146698 5.9475708 C21.91703285 5.93817441 19.71938214 5.93160831 17.52172852 5.92773438 C14.24143138 5.91812671 10.96178865 5.88709178 7.68164062 5.85546875 C-6.64779973 5.78437064 -20.47933527 6.89816755 -34.625 9.16796875 C-35.40862411 9.29295746 -36.19224823 9.41794617 -36.99961853 9.54672241 C-44.74134737 10.79915211 -52.28012018 12.5050143 -59.8125 14.66796875 C-60.52003418 14.8695459 -61.22756836 15.07112305 -61.95654297 15.27880859 C-65.85209655 16.4488844 -69.41589402 17.62560906 -72.625 20.16796875 C-72.625 21.48796875 -72.625 22.80796875 -72.625 24.16796875 C-65.365 24.16796875 -58.105 24.16796875 -50.625 24.16796875 C-50.625 33.3748653 -50.625 33.3748653 -52.875 35.79296875 C-55.11120398 37.71495203 -56.2690815 38.15466836 -59.23828125 38.265625 C-69.82933566 36.7926969 -80.31083366 32.93531344 -88.625 26.16796875 C-88.31159001 23.21793502 -88.12381739 21.62832857 -85.90234375 19.578125 C-60.68234587 5.05241671 -28.74804343 0.03228574 0 0 Z " fill="#EDEEEB" transform="translate(180.625,76.83203125)"/>
<path d="M0 0 C0.27846201 2.83304828 0.52319597 5.66272609 0.75 8.5 C0.83121094 9.29148438 0.91242188 10.08296875 0.99609375 10.8984375 C1.42736819 16.74460209 0.56749232 21.22684378 -3 26 C-11.49870891 32.4325835 -24.09795971 32.94931448 -34.30859375 31.72265625 C-39.95832959 30.69454141 -45.49709275 28.63850988 -50 25 C-52.79106574 17.81667818 -50.77721174 8.42514783 -50 1 C-48.65421875 1.6496875 -48.65421875 1.6496875 -47.28125 2.3125 C-34.09190161 8.33691096 -22.7641902 8.85680827 -8.76953125 4.16796875 C-6.19713108 3.08313426 -2.7113668 0 0 0 Z " fill="#F4F4F3" transform="translate(221,182)"/>
<path d="M0 0 C3.20985799 0.64473475 5.10151627 1.37684911 8 3 C8.6953125 5.109375 8.6953125 5.109375 9 7 C3.98013301 10.01667085 0.28676196 10.38714622 -5.375 10.1875 C-6.11105469 10.17396484 -6.84710938 10.16042969 -7.60546875 10.14648438 C-9.40396743 10.11144869 -11.20208422 10.05765288 -13 10 C-12.67 10.99 -12.34 11.98 -12 13 C-1.81915209 13.19776528 -1.81915209 13.19776528 8.3125 12.375 C9.529375 12.25125 10.74625 12.1275 12 12 C12.66 12.66 13.32 13.32 14 14 C13.625 16.625 13.625 16.625 13 19 C5.2370239 21.94397288 -1.74447081 22.34937193 -10 22 C-10 22.99 -10 23.98 -10 25 C-7.33311371 24.85756403 -4.66654233 24.71113422 -2 24.5625 C-0.88431641 24.50352539 -0.88431641 24.50352539 0.25390625 24.44335938 C4.03191308 24.22981986 7.75099305 23.92369003 11.5 23.40234375 C13.2325 23.20318359 13.2325 23.20318359 15 23 C16 24 16 24 16.375 26.375 C16 29 16 29 13.96484375 30.58984375 C10.41758337 32.27701239 7.04563991 32.78507201 3.1875 33.1875 C2.49462891 33.26935547 1.80175781 33.35121094 1.08789062 33.43554688 C-0.60686984 33.63424293 -2.30330194 33.81859203 -4 34 C-4 34.66 -4 35.32 -4 36 C2.93302093 36.22731216 9.2168636 35.42002108 16 34 C15.2265625 38.78125 15.2265625 38.78125 13.1875 40.75 C7.73713469 43.86449446 1.08210003 43.95130282 -5 43 C-12.41614639 38.86131185 -17.46677946 30.96566733 -20 23 C-20.45185919 19.94643373 -20.51022591 16.95811289 -20.5 13.875 C-20.52835938 13.08996094 -20.55671875 12.30492187 -20.5859375 11.49609375 C-20.59984565 7.37232811 -20.31552771 5.45992174 -17.92578125 1.9765625 C-12.47846132 -1.70346939 -6.31459776 -0.61475449 0 0 Z " fill="#EEEFED" transform="translate(76,327)"/>
<path d="M0 0 C2.125 0 2.125 0 5 1 C6.3515625 2.77734375 6.3515625 2.77734375 7.75 4.9375 C10.09924025 8.36067865 11.59520305 9.57245878 15.6875 10.375 C16.80705078 10.51035156 16.80705078 10.51035156 17.94921875 10.6484375 C20 11 20 11 23 13 C22.67587078 16.67346452 22.14011257 17.86330481 19.4375 20.5 C16.48784575 23.70320619 16.69899977 26.57020777 16.75 30.8125 C16.80671875 31.95332031 16.8634375 33.09414063 16.921875 34.26953125 C16.94765625 35.17058594 16.9734375 36.07164062 17 37 C16.67 37.33 16.34 37.66 16 38 C14.00390625 37.9140625 14.00390625 37.9140625 11.5625 37.625 C10.35787109 37.48964844 10.35787109 37.48964844 9.12890625 37.3515625 C7 37 7 37 5 36 C0.69708774 35.71313918 -2.06131348 36.38412861 -6 38 C-8.75 38.1875 -8.75 38.1875 -11 38 C-11.33 37.67 -11.66 37.34 -12 37 C-11.914155 34.95748094 -11.80604782 32.91588213 -11.6875 30.875 C-11.62017153 26.14129055 -11.69126641 23.48695577 -15 20 C-15.54914063 19.48308594 -16.09828125 18.96617187 -16.6640625 18.43359375 C-18 17 -18 17 -18.375 14.0625 C-18.189375 13.0415625 -18.189375 13.0415625 -18 12 C-15.70492572 10.995905 -13.54879392 10.08408939 -11.0625 9.703125 C-7.67116845 9.16359498 -5.66285548 8.77758046 -3.375 6.09375 C-2.13984678 4.10066185 -1.02069161 2.11008361 0 0 Z " fill="#376512" transform="translate(236,254)"/>
<path d="M0 0 C17.16 0 34.32 0 52 0 C52 5.28 52 10.56 52 16 C48.34031983 17.82984008 47.2657076 18.25104567 43.46264648 18.25878906 C42.12622353 18.26824554 42.12622353 18.26824554 40.76280212 18.27789307 C39.80853836 18.2738446 38.8542746 18.26979614 37.87109375 18.265625 C36.88504654 18.26753845 35.89899933 18.2694519 34.8830719 18.27142334 C32.80103296 18.27278301 30.71898549 18.26910179 28.63696289 18.26074219 C25.44593333 18.25002831 22.25546531 18.26065083 19.06445312 18.2734375 C17.04166542 18.27211609 15.01887807 18.26955408 12.99609375 18.265625 C12.03980576 18.26967346 11.08351776 18.27372192 10.09825134 18.27789307 C9.21045486 18.27158875 8.32265839 18.26528442 7.40795898 18.25878906 C6.62726547 18.25719788 5.84657196 18.25560669 5.04222107 18.25396729 C3 18 3 18 0 16 C0 10.72 0 5.44 0 0 Z " fill="#F4F3F3" transform="translate(208,304)"/>
<path d="M0 0 C5.5681623 0.03592363 15.17168177 1.23418177 19.25 5.3125 C18.87329213 12.6029053 16.96868892 18.81238083 14.4375 25.625 C14.09396484 26.60017578 13.75042969 27.57535156 13.39648438 28.58007812 C13.05294922 29.51916016 12.70941406 30.45824219 12.35546875 31.42578125 C12.04762451 32.26923096 11.73978027 33.11268066 11.42260742 33.98168945 C10.05497103 36.7001622 8.5933285 38.37790764 6.25 40.3125 C3 40.5625 3 40.5625 0.25 40.3125 C0.25 38.6625 0.25 37.0125 0.25 35.3125 C-3.68075644 35.88702746 -3.68075644 35.88702746 -6.75 38.3125 C-11.625 36.5625 -11.625 36.5625 -12.75 34.3125 C-13.11917773 28.02951304 -12.10970967 22.72470398 -10.4375 16.6875 C-10.22416016 15.86765625 -10.01082031 15.0478125 -9.79101562 14.203125 C-6.10318089 0.50859841 -6.10318089 0.50859841 0 0 Z " fill="#EEF0EC" transform="translate(263.75,206.6875)"/>
<path d="M0 0 C7.92 0.33 15.84 0.66 24 1 C24 13.87 24 26.74 24 40 C8 40 8 40 3 36 C0.50562734 33.47366234 0.02027617 32.20191866 -0.34057617 28.60839844 C-0.32486572 27.2887207 -0.30915527 25.96904297 -0.29296875 24.609375 C-0.28872391 23.90476135 -0.28447906 23.20014771 -0.28010559 22.47418213 C-0.26336538 20.23239288 -0.22572404 17.99151569 -0.1875 15.75 C-0.17244704 14.22657552 -0.1587597 12.70313689 -0.14648438 11.1796875 C-0.11603345 7.45249432 -0.05730986 3.72726321 0 0 Z " fill="#F6F5F6" transform="translate(208,325)"/>
<path d="M0 0 C0.09935088 4.30495015 0.17169268 8.60928183 0.21972656 12.91503906 C0.23976332 14.37772252 0.26700104 15.84032666 0.30175781 17.30273438 C0.35063225 19.4129601 0.37304659 21.52212136 0.390625 23.6328125 C0.41157227 24.90012207 0.43251953 26.16743164 0.45410156 27.47314453 C-0.08551046 31.66413122 -1.32591498 33.76241732 -4 37 C-11.1320978 40.82076668 -15.19559435 40 -24 40 C-24 27.13 -24 14.26 -24 1 C-5 0 -5 0 0 0 Z " fill="#F4F3F4" transform="translate(260,325)"/>
<path d="M0 0 C4.80227211 0.89712776 7.67562726 3.54683801 11 7 C15.26562468 13.82499949 15.1607899 20.89126607 15.125 28.6875 C15.13080078 29.96850586 15.13080078 29.96850586 15.13671875 31.27539062 C15.13542969 32.09587891 15.13414062 32.91636719 15.1328125 33.76171875 C15.13168457 34.50381592 15.13055664 35.24591309 15.12939453 36.01049805 C15 38 15 38 14 41 C7.08447309 40.65422365 1.95582983 38.92158222 -4.30078125 35.9609375 C-7.1352847 34.95183786 -8.25071312 34.91595814 -11 36 C-10.67 38.31 -10.34 40.62 -10 43 C-12.78858 44.03004293 -15.58030288 45.04930997 -18.375 46.0625 C-19.1690625 46.35705078 -19.963125 46.65160156 -20.78125 46.95507812 C-21.54179687 47.22900391 -22.30234375 47.50292969 -23.0859375 47.78515625 C-23.7876709 48.04176025 -24.4894043 48.29836426 -25.21240234 48.56274414 C-27 49 -27 49 -29 48 C-28.14341797 47.12214844 -28.14341797 47.12214844 -27.26953125 46.2265625 C-15.39665931 33.65528632 -1.0187964 17.99873633 0 0 Z " fill="#F3F3F2" transform="translate(229,193)"/>
<path d="M0 0 C0.70995117 0.02602295 1.41990234 0.0520459 2.15136719 0.07885742 C6.46826197 0.34131555 9.47258192 1.02678403 12.875 3.75 C14.23107318 7.97775755 14.27669541 9.93054137 12.3125 13.9375 C9.09592238 17.64893571 6.1757973 20.42895852 1.1875 21.125 C-1.125 20.75 -1.125 20.75 -4.125 18.75 C-9.45968429 18.36535105 -9.45968429 18.36535105 -14.125 20.75 C-20.23622046 20.63469395 -22.9592639 18.9157361 -27.125 14.75 C-29.41943867 11.51692733 -29.69493652 8.65813616 -29.125 4.75 C-23.91378025 -0.53856624 -18.37484276 -0.15665925 -11.29980469 -0.25048828 C-7.52816356 -0.24964148 -3.76789296 -0.16839974 0 0 Z " fill="#EEEFEC" transform="translate(203.125,147.25)"/>
<path d="M0 0 C0.07734375 1.29357422 0.07734375 1.29357422 0.15625 2.61328125 C1.7110744 19.345312 9.31665042 33.8433689 18 48 C14.82374926 46.97953558 11.91548045 45.95687778 8.9375 44.4375 C6.2165976 43.10599457 3.97745558 42.43786111 1 42 C1.33 41.236875 1.66 40.47375 2 39.6875 C3.17436686 37.00930865 3.17436686 37.00930865 3 34 C-2.56860616 33.71109696 -6.68179619 34.61108417 -11.8125 36.5 C-18.80574324 39 -18.80574324 39 -21 39 C-19.82878222 26.40940882 -15.33497662 11.39731586 -5.75 2.75 C-2.37142857 0 -2.37142857 0 0 0 Z " fill="#F0F0EF" transform="translate(163,194)"/>
<path d="M0 0 C19.8 0 39.6 0 60 0 C60 3.3 60 6.6 60 10 C40.2 10 20.4 10 0 10 C0 6.7 0 3.4 0 0 Z " fill="#F1F1F0" transform="translate(107,395)"/>
<path d="M0 0 C1.87394714 0.25369263 1.87394714 0.25369263 4 1 C5.13447571 2.71676636 5.13447571 2.71676636 6.0168457 4.94091797 C6.34778229 5.75848572 6.67871887 6.57605347 7.01968384 7.418396 C7.34318817 8.27032532 7.6666925 9.12225464 8 10 C8.30489349 10.78538147 8.60978699 11.57076294 8.92391968 12.37994385 C9.88237238 14.89379523 10.80972617 17.41741412 11.73046875 19.9453125 C12.07867172 20.89366974 12.42687469 21.84202698 12.78562927 22.81912231 C13.92296855 25.91985496 15.05557958 29.02228544 16.1875 32.125 C16.9789303 34.29006597 17.77043531 36.45510463 18.56201172 38.62011719 C20.20762539 43.12327482 21.85072938 47.62734 23.49267578 52.13183594 C25.56660904 57.81840432 27.65253413 63.50048686 29.74232483 69.1812439 C31.32980869 73.50091036 32.91035312 77.82309292 34.48916626 82.14593506 C35.24394958 84.2086458 36.00140012 86.27038259 36.76156616 88.33111572 C37.81996321 91.20241877 38.86821721 94.07723068 39.9140625 96.953125 C40.22879013 97.799888 40.54351776 98.646651 40.86778259 99.51907349 C42.28953534 103.46010075 43.42478803 106.73921478 43 111 C41.02 111.495 41.02 111.495 39 112 C38.71084717 111.19022705 38.42169434 110.3804541 38.1237793 109.54614258 C37.24718309 107.091431 36.37046918 104.63676166 35.49365234 102.18212891 C34.5168864 99.44761686 33.54070189 96.71289831 32.56494141 93.97802734 C25.22352299 73.40797592 17.7822998 52.87596169 10.25 32.375 C9.85237457 31.29221771 9.45474915 30.20943542 9.04507446 29.09384155 C7.91127341 26.00749892 6.7762509 22.92160909 5.640625 19.8359375 C5.30163681 18.91366867 4.96264862 17.99139984 4.61338806 17.04118347 C3.3792132 13.69242824 2.14847609 10.35775724 0.78027344 7.06103516 C-0.14813735 4.60870603 -0.14857846 2.60012307 0 0 Z " fill="#EAECE8" transform="translate(139,276)"/>
<path d="M0 0 C0.62198595 12.61249288 0.62198595 12.61249288 -1.625 17.625 C-7.91111111 23.91111111 -7.91111111 23.91111111 -12.9375 24.125 C-17.84219148 22.3232766 -21.76601105 19.38329239 -24.1953125 14.69140625 C-25.13024942 11.56435996 -25.19660252 8.94541484 -25.125 5.6875 C-25.10695312 4.61886719 -25.08890625 3.55023438 -25.0703125 2.44921875 C-25.04710937 1.64097656 -25.02390625 0.83273438 -25 0 C-23.39125 -0.433125 -23.39125 -0.433125 -21.75 -0.875 C-18.18100741 -1.7982687 -18.18100741 -1.7982687 -15.875 -3.1875 C-11.12259876 -5.24687387 -4.64471111 -1.60895221 0 0 Z " fill="#32620E" transform="translate(207,43)"/>
<path d="M0 0 C5.94 0 11.88 0 18 0 C19.94739557 5.55007737 21.67258669 11.14633779 23.25 16.8125 C23.60578125 18.07707031 23.9615625 19.34164063 24.328125 20.64453125 C24.93751938 23.68796018 25.11226975 25.16941609 24 28 C18.64746764 28.59228842 14.2628498 28.73938724 9.6875 25.625 C4.150816 20.90648995 1.00817208 14.14210325 0 7 C0 4.69 0 2.38 0 0 Z " fill="#F3F2F2" transform="translate(304,263)"/>
<path d="M0 0 C2.475 0.495 2.475 0.495 5 1 C5.33 2.32 5.66 3.64 6 5 C10.95 5 15.9 5 21 5 C18.125 16.875 18.125 16.875 17 18 C14.78144736 18.08783542 12.56011504 18.10694609 10.33984375 18.09765625 C9.34314415 18.09553383 9.34314415 18.09553383 8.3263092 18.09336853 C6.19666101 18.08775518 4.06711661 18.07520054 1.9375 18.0625 C0.49674631 18.05748671 -0.94400903 18.05292351 -2.38476562 18.04882812 C-5.92321102 18.03778145 -9.46159539 18.02050792 -13 18 C-13.67667998 16.75539217 -14.34094719 15.50403104 -15 14.25 C-15.37125 13.55390625 -15.7425 12.8578125 -16.125 12.140625 C-17 10 -17 10 -17 6 C-16.02417969 5.98582031 -15.04835938 5.97164063 -14.04296875 5.95703125 C-12.77066406 5.90933594 -11.49835938 5.86164063 -10.1875 5.8125 C-8.92292969 5.77769531 -7.65835938 5.74289062 -6.35546875 5.70703125 C-2.8234665 5.34379606 -2.8234665 5.34379606 -1.05078125 2.44921875 C-0.70402344 1.64097656 -0.35726562 0.83273437 0 0 Z " fill="#E8E9E6" transform="translate(91,262)"/>
<path d="M0 0 C3.875 4.75 3.875 4.75 5 7 C7.11846285 7.68729254 7.11846285 7.68729254 9.5625 8.125 C10.38878906 8.29257812 11.21507812 8.46015625 12.06640625 8.6328125 C12.70449219 8.75398438 13.34257812 8.87515625 14 9 C13.58021018 11.43478098 13.31270459 12.70658824 11.48046875 14.42578125 C9.43728787 16.59834561 9.50305901 18.2528913 9.3125 21.1875 C9.24675781 22.08855469 9.18101562 22.98960937 9.11328125 23.91796875 C9.07589844 24.60503906 9.03851563 25.29210937 9 26 C4 25 4 25 1.6875 24.25 C-2.29582122 23.87945849 -5.39396198 25.41620662 -9 27 C-8.94199219 26.26394531 -8.88398438 25.52789062 -8.82421875 24.76953125 C-8.38804293 18.34469628 -8.38804293 18.34469628 -11.5 12.9375 C-12.325 12.298125 -13.15 11.65875 -14 11 C-14 10.34 -14 9.68 -14 9 C-13.40832031 8.93683594 -12.81664062 8.87367188 -12.20703125 8.80859375 C-7.28071079 8.08054258 -7.28071079 8.08054258 -3.2890625 5.30859375 C-1.76166894 3.18438852 -1.76166894 3.18438852 0 0 Z " fill="#F3F3F1" transform="translate(238,260)"/>
<path d="M0 0 C5.5425462 0.09945841 15.13652318 1.32402318 19.1875 5.375 C18.81079213 12.6654053 16.90618892 18.87488083 14.375 25.6875 C14.03146484 26.66267578 13.68792969 27.63785156 13.33398438 28.64257812 C12.99044922 29.58166016 12.64691406 30.52074219 12.29296875 31.48828125 C11.98512451 32.33173096 11.67728027 33.17518066 11.36010742 34.04418945 C9.99247103 36.7626622 8.5308285 38.44040764 6.1875 40.375 C2.9375 40.625 2.9375 40.625 0.1875 40.375 C0.1875 38.725 0.1875 37.075 0.1875 35.375 C-1.1325 35.045 -2.4525 34.715 -3.8125 34.375 C-2.8225 34.375 -1.8325 34.375 -0.8125 34.375 C-0.8125 33.715 -0.8125 33.055 -0.8125 32.375 C1.4975 32.705 3.8075 33.035 6.1875 33.375 C5.8575 32.055 5.5275 30.735 5.1875 29.375 C6.5075 29.045 7.8275 28.715 9.1875 28.375 C9.5175 27.055 9.8475 25.735 10.1875 24.375 C7.8775 23.715 5.5675 23.055 3.1875 22.375 C6.51284757 21.26655081 8.80932575 21.53045644 12.1875 22.375 C11.8575 21.385 11.5275 20.395 11.1875 19.375 C9.08165562 18.56936362 9.08165562 18.56936362 6.625 18.1875 C5.38556641 17.94966797 5.38556641 17.94966797 4.12109375 17.70703125 C3.16396484 17.54267578 3.16396484 17.54267578 2.1875 17.375 C2.8475 16.055 3.5075 14.735 4.1875 13.375 C7.4875 13.375 10.7875 13.375 14.1875 13.375 C14.1875 12.055 14.1875 10.735 14.1875 9.375 C12.45893541 8.8936659 10.72961929 8.41503029 9 7.9375 C8.03707031 7.67066406 7.07414062 7.40382812 6.08203125 7.12890625 C3.46086303 6.44619982 0.848565 5.87607805 -1.8125 5.375 C-2.4725 7.025 -3.1325 8.675 -3.8125 10.375 C-4.4725 9.715 -5.1325 9.055 -5.8125 8.375 C-6.8025 8.87 -6.8025 8.87 -7.8125 9.375 C-5.52278037 0.5432243 -5.52278037 0.5432243 0 0 Z " fill="#EEF0EC" transform="translate(263.8125,206.625)"/>
<path d="M0 0 C0.99 0 1.98 0 3 0 C20.78521492 48.26421181 20.78521492 48.26421181 27 65.625 C27.38978027 66.71006836 27.77956055 67.79513672 28.18115234 68.91308594 C29.95951485 73.90614942 31.62344325 78.8809296 33 84 C31.68 84 30.36 84 29 84 C25.50267866 75.56772326 22.46284784 66.98396156 19.4375 58.375 C18.47894004 55.6532658 17.51918695 52.93195473 16.55859375 50.2109375 C16.33124039 49.56662781 16.10388702 48.92231812 15.86964417 48.25848389 C14.29899985 43.81773846 12.67295159 39.40304437 11 35 C10.05288855 32.40220858 9.11588035 29.80096398 8.1796875 27.19921875 C7.29271102 24.79380904 6.38160047 22.40564696 5.4453125 20.01953125 C5.04082886 18.97635742 5.04082886 18.97635742 4.62817383 17.91210938 C4.09894742 16.54983848 3.56272715 15.19025616 3.01831055 13.83398438 C1.2313408 9.20545888 0.45640051 4.94342239 0 0 Z " fill="#3B691A" transform="translate(144,300)"/>
<path d="M0 0 C1.22244667 0.00333092 1.22244667 0.00333092 2.46958923 0.00672913 C3.39046829 0.00680466 4.31134735 0.00688019 5.26013184 0.00695801 C6.2611644 0.01211929 7.26219696 0.01728058 8.29356384 0.02259827 C9.31316696 0.02401321 10.33277008 0.02542816 11.38327026 0.02688599 C14.65417867 0.03250355 17.92501972 0.04505902 21.19590759 0.05775452 C23.40749515 0.06276725 25.61908377 0.06733055 27.83067322 0.07142639 C33.26494116 0.08247868 38.69916957 0.09923389 44.13340759 0.12025452 C44.51559526 1.77640109 44.84735861 3.44482476 45.13340759 5.12025452 C44.13340759 6.12025452 44.13340759 6.12025452 42.26681519 6.24050903 C41.45185074 6.23828842 40.63688629 6.23606781 39.79722595 6.23377991 C38.41590736 6.23366661 38.41590736 6.23366661 37.00668335 6.23355103 C36.00565079 6.22838974 35.00461823 6.22322845 33.97325134 6.21791077 C32.95364822 6.21649582 31.9340451 6.21508087 30.88354492 6.21362305 C27.61263652 6.20800548 24.34179546 6.19545002 21.07090759 6.18275452 C18.85932004 6.17774178 16.64773141 6.17317848 14.43614197 6.16908264 C9.00187402 6.15803035 3.56764562 6.14127515 -1.86659241 6.12025452 C-2.24878008 4.46410794 -2.58054342 2.79568427 -2.86659241 1.12025452 C-1.86659241 0.12025452 -1.86659241 0.12025452 0 0 Z " fill="#3F6C1E" transform="translate(84.86659240722656,296.87974548339844)"/>
<path d="M0 0 C0.33 8.25 0.66 16.5 1 25 C-7.16666667 23.83333333 -7.16666667 23.83333333 -11 20 C-13.70689314 15.55499652 -13.68829099 11.06385517 -13 6 C-9.21785675 -0.17750064 -7.4853449 0 0 0 Z " fill="#EEEFED" transform="translate(142,114)"/>
<path d="M0 0 C7 0 7 0 9.875 2.375 C13.00854659 6.24585167 13.45738616 8.72161574 13.41796875 13.609375 C12.69490415 17.74503419 10.16519909 20.37927323 7 23 C3.56374722 25.16540723 2.44720772 25 -2 25 C-1.34 16.75 -0.68 8.5 0 0 Z " fill="#EFF0EE" transform="translate(249,114)"/>
<path d="M0 0 C1.26108078 0.0001133 1.26108078 0.0001133 2.54763794 0.00022888 C3.91020218 0.00797081 3.91020218 0.00797081 5.30029297 0.01586914 C6.22969696 0.01728409 7.15910095 0.01869904 8.1166687 0.02015686 C11.09197171 0.02576486 14.06720011 0.03831871 17.04248047 0.05102539 C19.0568023 0.05603936 21.07112531 0.06060245 23.08544922 0.06469727 C28.02948849 0.07573689 32.97347182 0.0930069 37.91748047 0.11352539 C37.25748047 1.43352539 36.59748047 2.75352539 35.91748047 4.11352539 C29.64748047 4.11352539 23.37748047 4.11352539 16.91748047 4.11352539 C16.91748047 16.98352539 16.91748047 29.85352539 16.91748047 43.11352539 C16.58748047 43.11352539 16.25748047 43.11352539 15.91748047 43.11352539 C15.58748047 30.57352539 15.25748047 18.03352539 14.91748047 5.11352539 C14.58748047 17.65352539 14.25748047 30.19352539 13.91748047 43.11352539 C13.58748047 43.11352539 13.25748047 43.11352539 12.91748047 43.11352539 C12.91748047 30.24352539 12.91748047 17.37352539 12.91748047 4.11352539 C6.31748047 4.11352539 -0.28251953 4.11352539 -7.08251953 4.11352539 C-6.75251953 3.12352539 -6.42251953 2.13352539 -6.08251953 1.11352539 C-3.79620459 -0.02963208 -2.53904547 -0.00760193 0 0 Z " fill="#416B1F" transform="translate(219.08251953125,321.886474609375)"/>
<path d="M0 0 C1.22244667 0.00333092 1.22244667 0.00333092 2.46958923 0.00672913 C3.39046829 0.00680466 4.31134735 0.00688019 5.26013184 0.00695801 C6.2611644 0.01211929 7.26219696 0.01728058 8.29356384 0.02259827 C9.31316696 0.02401321 10.33277008 0.02542816 11.38327026 0.02688599 C14.65417867 0.03250355 17.92501972 0.04505902 21.19590759 0.05775452 C23.40749515 0.06276725 25.61908377 0.06733055 27.83067322 0.07142639 C33.26494116 0.08247868 38.69916957 0.09923389 44.13340759 0.12025452 C44.69590759 2.05775452 44.69590759 2.05775452 45.13340759 4.12025452 C44.13340759 5.12025452 44.13340759 5.12025452 42.26681519 5.24050903 C41.45185074 5.23828842 40.63688629 5.23606781 39.79722595 5.23377991 C38.41590736 5.23366661 38.41590736 5.23366661 37.00668335 5.23355103 C36.00565079 5.22838974 35.00461823 5.22322845 33.97325134 5.21791077 C32.95364822 5.21649582 31.9340451 5.21508087 30.88354492 5.21362305 C27.61263652 5.20800548 24.34179546 5.19545002 21.07090759 5.18275452 C18.85932004 5.17774178 16.64773141 5.17317848 14.43614197 5.16908264 C9.00187402 5.15803035 3.56764562 5.14127515 -1.86659241 5.12025452 C-2.42909241 3.18275452 -2.42909241 3.18275452 -2.86659241 1.12025452 C-1.86659241 0.12025452 -1.86659241 0.12025452 0 0 Z " fill="#2B5D06" transform="translate(89.86659240722656,311.87974548339844)"/>
<path d="M0 0 C1.155 0.165 2.31 0.33 3.5 0.5 C10.6385158 1.31353872 17.82734659 1.07920722 25 1 C23.34136495 5.32504836 20.128959 8.09418825 16.875 11.25 C16.31167969 11.80429688 15.74835938 12.35859375 15.16796875 12.9296875 C13.78313972 14.29104485 12.39216796 15.64614859 11 17 C7.85177192 14.06072511 5.54542155 11.0143222 3.25 7.375 C2.63640625 6.41335937 2.0228125 5.45171875 1.390625 4.4609375 C0 2 0 2 0 0 Z " fill="#F2F2F1" transform="translate(179,225)"/>
<path d="M0 0 C0.29130874 4.95224859 0.22986308 8.10188939 -3 12 C-5.6875 13.3125 -5.6875 13.3125 -8 14 C-12.875 10.25 -12.875 10.25 -14 8 C-14.13415472 5.3276379 -14.04318541 2.67749512 -14 0 C-9.20699867 -1.39151652 -4.84864218 -0.68662689 0 0 Z " fill="#F1F1F0" transform="translate(202,47)"/>
<path d="M0 0 C3.48506572 0.68001282 4.57244763 1.55177427 6.5625 4.5 C7.20394893 8.04222351 7.24777863 11.28172688 5.4375 14.5 C2.66434376 15.97901666 0.65065875 15.88601984 -2.4375 15.5 C-4.3125 14.5 -4.3125 14.5 -5.4375 12.5 C-5.83237671 8.35379452 -6.03126995 5.750042 -4.25 2 C-2.4375 0.5 -2.4375 0.5 0 0 Z " fill="#30610B" transform="translate(170.4375,110.5)"/>
<path d="M0 0 C2.5625 0.5 2.5625 0.5 4.9375 2.5625 C7.05047122 6.38210182 6.64200297 8.33620281 5.5625 12.5 C4.5725 13.985 4.5725 13.985 3.5625 15.5 C-1.55950137 16.15387252 -1.55950137 16.15387252 -4.10546875 14.2578125 C-5.78803769 12.0374136 -5.84012705 10.76270516 -5.8125 8 C-5.82023438 7.2265625 -5.82796875 6.453125 -5.8359375 5.65625 C-5.17506173 2.07974585 -3.49073887 0.716049 0 0 Z " fill="#32630D" transform="translate(219.4375,110.5)"/>
<path d="M0 0 C0.65742188 0.2165625 1.31484375 0.433125 1.9921875 0.65625 C13.4228091 4.00179779 25.30076577 3.91638711 37 2 C34.53195612 6.81268556 34.53195612 6.81268556 32.1550293 7.6496582 C28.38192741 8.26304907 24.62713795 8.18454521 20.8125 8.1875 C19.99974609 8.19974609 19.18699219 8.21199219 18.34960938 8.22460938 C12.89073752 8.23763771 7.10799115 8.1166291 2 6 C0.4375 2.875 0.4375 2.875 0 0 Z " fill="#F3F4F1" transform="translate(174,215)"/>
<path d="M0 0 C3.1875 1.5 3.1875 1.5 5 3 C4.67 4.32 4.34 5.64 4 7 C2.77023438 6.83951172 2.77023438 6.83951172 1.515625 6.67578125 C-0.10085937 6.49595703 -0.10085937 6.49595703 -1.75 6.3125 C-3.35101563 6.12107422 -3.35101563 6.12107422 -4.984375 5.92578125 C-8.45651397 6.01123545 -9.43129576 6.79825351 -12 9 C-14.25 8.6875 -14.25 8.6875 -16 8 C-15.68112268 5.05038481 -15.46685059 3.44975766 -13.29296875 1.35546875 C-9.17000263 -1.0817872 -4.64086718 -0.53548467 0 0 Z " fill="#33620E" transform="translate(176,97)"/>
<path d="M0 0 C3.625 1.1875 3.625 1.1875 6 3 C6.875 5.6875 6.875 5.6875 7 8 C5.3125 8.6875 5.3125 8.6875 3 9 C2.319375 8.505 1.63875 8.01 0.9375 7.5 C-3.64176069 5.16165411 -8.03321763 6.27803339 -13 7 C-13.6875 5.1875 -13.6875 5.1875 -14 3 C-10.92354895 -1.80491648 -5.00743996 -0.52145951 0 0 Z " fill="#32620D" transform="translate(224,97)"/>
<path d="M0 0 C2.16874252 0.50603992 3.99967627 0.99983813 6 2 C8.49253376 2.12419345 10.94490756 2.18515513 13.4375 2.1875 C14.4594043 2.20586914 14.4594043 2.20586914 15.50195312 2.22460938 C19.22829809 2.23555848 20.81991571 2.12005619 24 0 C24.99 0 25.98 0 27 0 C26.63011037 2.41188306 26.40044609 3.66124143 24.50390625 5.265625 C19.00502815 8.05378854 14.13329607 8.99566495 8 8 C5.12159949 6.97795924 3.48381725 5.90249832 1 4 C0.0625 1.75 0.0625 1.75 0 0 Z " fill="#3F6B1C" transform="translate(182,152)"/>
<path d="M0 0 C2.78890076 0.51296906 5.40305381 1.11812032 8.125 1.875 C8.87910156 2.07480469 9.63320313 2.27460938 10.41015625 2.48046875 C12.27624952 2.97651886 14.13851549 3.48692568 16 4 C16.38218767 5.65614657 16.71395102 7.32457024 17 9 C16.67 9.33 16.34 9.66 16 10 C9.7774513 9.86004648 3.89510652 8.96503551 -2 7 C-2.125 4.625 -2.125 4.625 -2 2 C-1.34 1.34 -0.68 0.68 0 0 Z " fill="#366313" transform="translate(262,211)"/>
<path d="M0 0 C0.66 0.33 1.32 0.66 2 1 C1.67 2.32 1.34 3.64 1 5 C-5.14778871 6.6277833 -10.64012196 7.20190089 -17 7 C-17 5.68 -17 4.36 -17 3 C-15.41058594 2.80083984 -15.41058594 2.80083984 -13.7890625 2.59765625 C-12.40101721 2.41946125 -11.01299769 2.2410654 -9.625 2.0625 C-8.92632812 1.97548828 -8.22765625 1.88847656 -7.5078125 1.79882812 C-3.63216425 1.33681872 -3.63216425 1.33681872 0 0 Z " fill="#2F5E0B" transform="translate(89,357)"/>
<path d="M0 0 C6.00230002 -0.48667297 11.31700989 1.30117022 17 3 C17.33 4.32 17.66 5.64 18 7 C12.2190275 6.36934845 6.6556294 5.34844868 1 4 C0.67 2.68 0.34 1.36 0 0 Z " fill="#3B6518" transform="translate(258,222)"/>
<path d="M0 0 C5.61 0 11.22 0 17 0 C16.67 1.32 16.34 2.64 16 4 C11.05 4 6.1 4 1 4 C0.67 2.68 0.34 1.36 0 0 Z " fill="#356116" transform="translate(63,337)"/>
<path d="M0 0 C6.45512034 -0.56131481 11.15439723 1.36536213 17 4 C16.67 4.99 16.34 5.98 16 7 C10.60204011 5.84941444 5.29012667 4.57578241 0 3 C0 2.01 0 1.02 0 0 Z " fill="#426D20" transform="translate(254,234)"/>
<path d="M0 0 C6.41481258 -0.42765417 11.88595404 1.14256832 18 3 C17.67 3.99 17.34 4.98 17 6 C11.47232137 5.52369209 6.21727176 4.95647691 1 3 C0.67 2.01 0.34 1.02 0 0 Z " fill="#366115" transform="translate(256,228)"/>
<path d="M0 0 C4.29 0 8.58 0 13 0 C13 0.66 13 1.32 13 2 C13.99 2.33 14.98 2.66 16 3 C10.65703984 4.42478938 3.84916061 5.24861692 -1.30859375 2.98828125 C-1.86675781 2.66214844 -2.42492187 2.33601562 -3 2 C-2.01 2 -1.02 2 0 2 C0 1.34 0 0.68 0 0 Z " fill="#507A33" transform="translate(187,223)"/>
<path d="M0 0 C0.99 0 1.98 0 3 0 C2.30058404 3.14737182 1.23921302 6.02588876 0 9 C-1.65 8.67 -3.3 8.34 -5 8 C-5.33 6.35 -5.66 4.7 -6 3 C-5.195625 2.87625 -4.39125 2.7525 -3.5625 2.625 C-2.716875 2.41875 -1.87125 2.2125 -1 2 C-0.67 1.34 -0.34 0.68 0 0 Z " fill="#3F6D1D" transform="translate(72,296)"/>
<path d="M0 0 C0.99 0 1.98 0 3 0 C3.50615298 1.26839526 4.00469099 2.53983102 4.5 3.8125 C4.91765625 4.87404297 4.91765625 4.87404297 5.34375 5.95703125 C6 8 6 8 6 11 C4.68 11.33 3.36 11.66 2 12 C0.70756464 7.8803623 -0.26252625 4.33168317 0 0 Z " fill="#406F1E" transform="translate(144,300)"/>
<path d="M0 0 C0.88171875 0.10828125 1.7634375 0.2165625 2.671875 0.328125 C5.17890778 0.69539732 7.65678163 1.11158238 10.125 1.6875 C8.578125 3.26953125 8.578125 3.26953125 6.125 4.6875 C2.671875 4.32421875 2.671875 4.32421875 -1.125 3.375 C-2.38828125 3.06949219 -3.6515625 2.76398438 -4.953125 2.44921875 C-5.91734375 2.19785156 -6.8815625 1.94648438 -7.875 1.6875 C-4.48985094 -0.56926604 -3.85122233 -0.48579248 0 0 Z " fill="#DEE5D8" transform="translate(262.875,232.3125)"/>
<path d="M0 0 C-0.33 1.98 -0.66 3.96 -1 6 C-2.32 6.33 -3.64 6.66 -5 7 C-5.33 6.34 -5.66 5.68 -6 5 C-8.02463255 4.34786708 -8.02463255 4.34786708 -10 4 C-3.375 0 -3.375 0 0 0 Z " fill="#7B9762" transform="translate(115,218)"/>
<path d="M0 0 C-0.66 1.98 -1.32 3.96 -2 6 C-3.98 6.33 -5.96 6.66 -8 7 C-7.8125 4.625 -7.8125 4.625 -7 2 C-4.54236535 0.67665827 -2.79402354 0 0 0 Z " fill="#DCE2D9" transform="translate(142,209)"/>
<path d="M0 0 C0.66 0.33 1.32 0.66 2 1 C2.73075648 3.3140622 3.40138258 5.64828869 4 8 C2.68 8.33 1.36 8.66 0 9 C-1.3950848 6.70221327 -2.07438619 5.5207033 -1.6875 2.8125 C-1 1 -1 1 0 0 Z " fill="#437123" transform="translate(159,337)"/>
<path d="M0 0 C2.0625 0.4375 2.0625 0.4375 4 1 C3.67 2.65 3.34 4.3 3 6 C1.68 6 0.36 6 -1 6 C-1.042721 4.33388095 -1.04063832 2.66617115 -1 1 C-0.67 0.67 -0.34 0.34 0 0 Z " fill="#487524" transform="translate(183,323)"/>
<path d="M0 0 C2.89932357 2.39509338 3.50168276 4.31245243 4 8 C2.68 8.33 1.36 8.66 0 9 C-1.125 2.25 -1.125 2.25 0 0 Z " fill="#416E1E" transform="translate(165,354)"/>
<path d="M0 0 C1.32 0.66 2.64 1.32 4 2 C3.34 3.32 2.68 4.64 2 6 C0.68 5.67 -0.64 5.34 -2 5 C-1.125 1.125 -1.125 1.125 0 0 Z " fill="#517A2F" transform="translate(187,261)"/>
<path d="M0 0 C0.9075 0.226875 1.815 0.45375 2.75 0.6875 C2.42 1.6775 2.09 2.6675 1.75 3.6875 C-1.22 3.3575 -4.19 3.0275 -7.25 2.6875 C-4.61280971 0.1517401 -3.74095095 -0.35970682 0 0 Z " fill="#467025" transform="translate(271.25,230.3125)"/>
<path d="M0 0 C1.485 0.99 1.485 0.99 3 2 C3.1875 4.625 3.1875 4.625 3 7 C2.01 7 1.02 7 0 7 C-0.38133299 5.0085944 -0.71325582 3.00720923 -1 1 C-0.67 0.67 -0.34 0.34 0 0 Z " fill="#2D5C0C" transform="translate(167,361)"/>
<path d="M0 0 C1.98 0.495 1.98 0.495 4 1 C3.67 2.32 3.34 3.64 3 5 C1.68 5 0.36 5 -1 5 C-0.67 3.35 -0.34 1.7 0 0 Z " fill="#44731D" transform="translate(184,292)"/>
<path d="M0 0 C0.763125 0.0825 1.52625 0.165 2.3125 0.25 C1.1059375 1.2090625 1.1059375 1.2090625 -0.125 2.1875 C-4.14253783 5.42112801 -4.02771146 7.06594715 -4.6875 12.25 C-5.0175 12.25 -5.3475 12.25 -5.6875 12.25 C-6.04940476 5.01190476 -6.04940476 5.01190476 -4.5 1.75 C-2.6875 0.25 -2.6875 0.25 0 0 Z " fill="#527A36" transform="translate(170.6875,110.75)"/>
<path d="M0 0 C2.31 0 4.62 0 7 0 C7 0.33 7 0.66 7 1 C5.35 1.33 3.7 1.66 2 2 C4.31 2.33 6.62 2.66 9 3 C9 3.33 9 3.66 9 4 C6.03 4 3.06 4 0 4 C0 2.68 0 1.36 0 0 Z " fill="#5A7F40" transform="translate(72,360)"/>
<path d="M0 0 C0 0.99 0 1.98 0 3 C-3.63 2.34 -7.26 1.68 -11 1 C-6.46780033 -1.26609984 -4.82227075 -0.92735976 0 0 Z " fill="#CED7C6" transform="translate(268,227)"/>
<path d="M0 0 C0.86625 0.3403125 0.86625 0.3403125 1.75 0.6875 C1.75 1.6775 1.75 2.6675 1.75 3.6875 C-0.89 3.3575 -3.53 3.0275 -6.25 2.6875 C-2.80384615 -0.38942308 -2.80384615 -0.38942308 0 0 Z " fill="#547A33" transform="translate(274.25,225.3125)"/>
<path d="M0 0 C1.32 0.66 2.64 1.32 4 2 C3.67 2.99 3.34 3.98 3 5 C1.68 4.67 0.36 4.34 -1 4 C-1 1 -1 1 0 0 Z " fill="#47722D" transform="translate(57,280)"/>
<path d="M0 0 C1.485 0.99 1.485 0.99 3 2 C2.625 3.9375 2.625 3.9375 2 6 C1.01 6.495 1.01 6.495 0 7 C-0.38133299 5.0085944 -0.71325582 3.00720923 -1 1 C-0.67 0.67 -0.34 0.34 0 0 Z " fill="#33650F" transform="translate(151,317)"/>
<path d="M0 0 C1.98 0.495 1.98 0.495 4 1 C4 1.99 4 2.98 4 4 C2.35 3.67 0.7 3.34 -1 3 C-0.67 2.01 -0.34 1.02 0 0 Z " fill="#47771E" transform="translate(232,310)"/>
<path d="M0 0 C1.98 0 3.96 0 6 0 C5.67 0.99 5.34 1.98 5 3 C3.35 3 1.7 3 0 3 C0 2.01 0 1.02 0 0 Z " fill="#325C0F" transform="translate(258,222)"/>
</svg>
